[Header]
# KeyWord<space>Value<CR>FileType htr
DataType HTRS
FileVersion 1.0
NumSegments 32
NumFrames 4
DataFrameRate 24
EulerRotationOrder XYZ
CalibrationUnits m
RotationUnits Degrees
GlobalAxisofGravity Z
BoneLengthAxis Z
ScaleFactor 1.0
[SegmentNames&Hierarchy]
# ObjectName<tab>ParentObjectName<CR>
pelvis	GLOBAL
spine01	pelvis
spine02	spine01
spine03	spine02
neck	spine03
head	neck
Collar_left	spine03
shoulder_up_left	Collar_left
bicep_up_left	shoulder_up_left
forearm_up_left	bicep_up_left
hand_up_left	forearm_up_left
shoulder_down_left	Collar_left
bicep_down_left	shoulder_down_left
forearm_down_left	bicep_down_left
hand_down_left	forearm_down_left
Collar_right	spine03
shoulder_up_right	Collar_right
bicep_up_right	shoulder_up_right
forearm_up_right	bicep_up_right
hand_up_right	forearm_up_right
shoulder_down_right	Collar_right
bicep_down_right	shoulder_down_right
forearm_down_right	bicep_down_right
hand_down_right	forearm_down_right
hip_left	pelvis
thigh_left	hip_left
shin_left	thigh_left
foot_left	shin_left
hip_right	pelvis
thigh_right	hip_right
shin_right	thigh_right
foot_right	shin_right
[BasePosition]
# ObjectName<tab>Tx<tab>Ty<tab>Tz<tab>Rx<tab>Ry<tab>Rz<tab>BoneLength<CR>
pelvis	0.000000	-0.438872	6.292980	90.000003	-0.000000	0.000000	1.677268
spine01	0.000000	1.677268	0.000000	0.000000	-0.000000	0.000000	2.370449
spine02	0.000000	2.370449	0.000000	0.000000	-0.000000	0.000000	2.680865
spine03	0.000000	2.680865	0.000000	0.000000	-0.000000	0.000000	3.160599
neck	0.000000	3.160599	0.000000	0.000000	-0.000000	0.000000	1.269882
head	0.000000	1.269882	0.000000	0.000000	0.000014	0.000000	4.176504
Collar_left	0.000000	3.160599	0.000000	21.069689	1.138138	109.250822	2.543778
shoulder_up_left	0.000001	2.543777	0.000000	-20.742461	-3.950507	-7.147224	2.341869
bicep_up_left	-0.000001	2.341868	0.000000	4.293160	0.027559	-5.998107	4.071239
forearm_up_left	0.000000	4.071239	-0.000000	-8.968416	-0.165229	-2.037328	3.736216
hand_up_left	0.000000	3.736216	0.000000	-0.780378	-0.284650	4.522557	2.141806
shoulder_down_left	0.000001	2.543777	0.000000	-11.374732	11.433438	33.097546	3.448410
bicep_down_left	-0.000001	3.448409	-0.000000	-0.711867	-1.315530	-6.783924	3.064684
forearm_down_left	0.000001	3.064684	0.000000	-17.686662	0.165761	1.581994	3.587720
hand_down_left	0.000000	3.587720	0.000000	11.694505	-0.524996	2.534701	2.862190
Collar_right	0.000000	3.160599	0.000000	21.069689	-1.138138	-109.250822	2.543778
shoulder_up_right	-0.000001	2.543777	0.000000	-20.742461	3.950507	7.147224	2.341869
bicep_up_right	0.000001	2.341868	0.000000	4.293160	-0.027559	5.998107	4.071239
forearm_up_right	0.000000	4.071239	-0.000000	-8.968416	0.165229	2.037328	3.736216
hand_up_right	0.000000	3.736216	0.000000	-0.780378	0.284650	-4.522557	2.141806
shoulder_down_right	-0.000001	2.543777	0.000000	-11.374732	-11.433438	-33.097546	3.448410
bicep_down_right	0.000001	3.448409	-0.000000	-0.711867	1.315530	6.783924	3.064684
forearm_down_right	-0.000001	3.064684	0.000000	-17.686662	-0.165761	-1.581994	3.587720
hand_down_right	0.000000	3.587720	0.000000	11.694505	0.524996	-2.534701	2.862190
hip_left	0.000000	-0.000003	0.000000	-96.241914	89.999996	0.000000	2.616231
thigh_left	0.000000	2.616231	0.000000	-73.061577	0.000001	0.000006	2.153898
shin_left	0.000000	2.153898	0.000000	-11.660560	0.342853	1.646302	2.782515
foot_left	0.000000	2.782514	0.000000	0.241543	0.154340	-77.422202	3.370008
hip_right	0.000000	-0.000003	0.000000	-96.241914	-89.999996	0.000000	2.616231
thigh_right	-0.000000	2.616231	0.000000	-73.061577	-0.000001	-0.000006	2.153898
shin_right	0.000000	2.153898	0.000000	-11.660560	-0.342853	-1.646302	2.782515
foot_right	-0.000000	2.782514	0.000000	0.241543	-0.154340	77.422202	3.370008
[pelvis]
# Tx<tab>Ty<tab>Tz<tab>Rx<tab>Ry<tab>Rz<tab>BoneScaleFactor<CR>
37	0.000000	0.000000	0.000000	0.000000	-0.000000	0.000000	1.000000
38	0.000000	0.000000	0.000000	0.000000	-0.000000	0.000000	1.000000
39	0.000000	0.000000	0.000000	0.000000	-0.000000	0.000000	1.000000
40	0.000000	0.000000	0.000000	0.000000	-0.000000	0.000000	1.000000
[spine01]
# Tx<tab>Ty<tab>Tz<tab>Rx<tab>Ry<tab>Rz<tab>BoneScaleFactor<CR>
37	0.000000	0.000000	0.000000	-14.890219	0.000000	0.000000	1.000000
38	0.000000	0.000000	0.000000	-14.242817	0.000000	0.000000	1.000000
39	0.000000	0.000000	0.000000	-13.541680	0.000000	0.000000	1.000000
40	0.000000	0.000000	0.000000	-12.794482	0.000000	0.000000	1.000000
[spine02]
# Tx<tab>Ty<tab>Tz<tab>Rx<tab>Ry<tab>Rz<tab>BoneScaleFactor<CR>
37	0.000000	0.000000	0.000000	-11.921907	0.000000	0.000000	1.000000
38	0.000000	0.000000	0.000000	-11.403563	0.000000	0.000000	1.000000
39	0.000000	0.000000	0.000000	-10.842194	0.000000	0.000000	1.000000
40	0.000000	0.000000	0.000000	-10.243948	0.000000	0.000000	1.000000
[spine03]
# Tx<tab>Ty<tab>Tz<tab>Rx<tab>Ry<tab>Rz<tab>BoneScaleFactor<CR>
37	0.000000	0.000000	0.000000	-14.114197	0.000000	0.000000	1.000000
38	0.000000	0.000000	0.000000	-13.500536	0.000000	0.000000	1.000000
39	0.000000	0.000000	0.000000	-12.835940	0.000000	0.000000	1.000000
40	0.000000	0.000000	0.000000	-12.127682	0.000000	0.000000	1.000000
[neck]
# Tx<tab>Ty<tab>Tz<tab>Rx<tab>Ry<tab>Rz<tab>BoneScaleFactor<CR>
37	0.000000	0.000000	0.000000	0.000000	-0.000000	0.000000	1.000000
38	0.000000	0.000000	0.000000	0.000000	-0.000000	0.000000	1.000000
39	0.000000	0.000000	0.000000	0.000000	-0.000000	0.000000	1.000000
40	0.000000	0.000000	0.000000	0.000000	-0.000000	0.000000	1.000000
[head]
# Tx<tab>Ty<tab>Tz<tab>Rx<tab>Ry<tab>Rz<tab>BoneScaleFactor<CR>
37	0.000000	0.000000	0.000000	0.000000	-0.000000	0.000000	1.000000
38	0.000000	0.000000	0.000000	0.000000	-0.000000	0.000000	1.000000
39	0.000000	0.000000	0.000000	0.000000	-0.000000	0.000000	1.000000
40	0.000000	0.000000	0.000000	0.000000	-0.000000	0.000000	1.000000
[Collar_left]
# Tx<tab>Ty<tab>Tz<tab>Rx<tab>Ry<tab>Rz<tab>BoneScaleFactor<CR>
37	0.000000	0.000000	0.000000	0.000000	-0.000000	0.000000	1.000000
38	0.000000	0.000000	0.000000	0.000000	-0.000000	0.000000	1.000000
39	0.000000	0.000000	0.000000	0.000000	-0.000000	0.000000	1.000000
40	0.000000	0.000000	0.000000	0.000000	-0.000000	0.000000	1.000000
[shoulder_up_left]
# Tx<tab>Ty<tab>Tz<tab>Rx<tab>Ry<tab>Rz<tab>BoneScaleFactor<CR>
37	0.000000	0.000000	0.000000	-1.939573	-7.431942	-37.029160	1.000000
38	0.000000	0.000000	0.000000	-1.855243	-7.108813	-35.419199	1.000000
39	0.000000	0.000000	0.000000	-1.763915	-6.758865	-33.675602	1.000000
40	0.000000	0.000000	0.000000	-1.666586	-6.385926	-31.817463	1.000000
[bicep_up_left]
# Tx<tab>Ty<tab>Tz<tab>Rx<tab>Ry<tab>Rz<tab>BoneScaleFactor<CR>
37	0.000000	0.000000	0.000000	0.000000	-0.000000	0.000000	1.000000
38	0.000000	0.000000	0.000000	0.000000	-0.000000	0.000000	1.000000
39	0.000000	0.000000	0.000000	0.000000	-0.000000	0.000000	1.000000
40	0.000000	0.000000	0.000000	0.000000	-0.000000	0.000000	1.000000
[forearm_up_left]
# Tx<tab>Ty<tab>Tz<tab>Rx<tab>Ry<tab>Rz<tab>BoneScaleFactor<CR>
37	0.000000	0.000000	0.000000	-12.629008	-10.120405	-14.189908	1.000000
38	0.000000	0.000000	0.000000	-12.079920	-9.680387	-13.572956	1.000000
39	0.000000	0.000000	0.000000	-11.485258	-9.203847	-12.904794	1.000000
40	0.000000	0.000000	0.000000	-10.851528	-8.696000	-12.192738	1.000000
[hand_up_left]
# Tx<tab>Ty<tab>Tz<tab>Rx<tab>Ry<tab>Rz<tab>BoneScaleFactor<CR>
37	0.000000	0.000000	0.000000	0.786577	-33.370112	1.932655	1.000000
38	0.000000	0.000000	0.000000	0.752378	-31.919233	1.848626	1.000000
39	0.000000	0.000000	0.000000	0.715340	-30.347931	1.757623	1.000000
40	0.000000	0.000000	0.000000	0.675870	-28.673404	1.660642	1.000000
[shoulder_down_left]
# Tx<tab>Ty<tab>Tz<tab>Rx<tab>Ry<tab>Rz<tab>BoneScaleFactor<CR>
37	0.000000	0.000000	0.000000	0.000000	-0.000000	0.000000	1.000000
38	0.000000	0.000000	0.000000	0.000000	-0.000000	0.000000	1.000000
39	0.000000	0.000000	0.000000	0.000000	-0.000000	0.000000	1.000000
40	0.000000	0.000000	0.000000	0.000000	-0.000000	0.000000	1.000000
[bicep_down_left]
# Tx<tab>Ty<tab>Tz<tab>Rx<tab>Ry<tab>Rz<tab>BoneScaleFactor<CR>
37	0.000000	0.000000	0.000000	-15.042829	8.259259	-23.311367	1.000000
38	0.000000	0.000000	0.000000	-14.388792	7.900161	-22.297829	1.000000
39	0.000000	0.000000	0.000000	-13.680468	7.511256	-21.200166	1.000000
40	0.000000	0.000000	0.000000	-12.925613	7.096803	-20.030390	1.000000
[forearm_down_left]
# Tx<tab>Ty<tab>Tz<tab>Rx<tab>Ry<tab>Rz<tab>BoneScaleFactor<CR>
37	0.000000	0.000000	0.000000	-16.492989	15.608680	-20.781972	1.000000
38	0.000000	0.000000	0.000000	-15.775901	14.930040	-19.878408	1.000000
39	0.000000	0.000000	0.000000	-14.999297	14.195073	-18.899844	1.000000
40	0.000000	0.000000	0.000000	-14.171669	13.411823	-17.856995	1.000000
[hand_down_left]
# Tx<tab>Ty<tab>Tz<tab>Rx<tab>Ry<tab>Rz<tab>BoneScaleFactor<CR>
37	0.000000	0.000000	0.000000	0.000000	-0.000000	0.000000	1.000000
38	0.000000	0.000000	0.000000	0.000000	-0.000000	0.000000	1.000000
39	0.000000	0.000000	0.000000	0.000000	-0.000000	0.000000	1.000000
40	0.000000	0.000000	0.000000	0.000000	-0.000000	0.000000	1.000000
[Collar_right]
# Tx<tab>Ty<tab>Tz<tab>Rx<tab>Ry<tab>Rz<tab>BoneScaleFactor<CR>
37	0.000000	0.000000	0.000000	0.000000	-0.000000	0.000000	1.000000
38	0.000000	0.000000	0.000000	0.000000	-0.000000	0.000000	1.000000
39	0.000000	0.000000	0.000000	0.000000	-0.000000	0.000000	1.000000
40	0.000000	0.000000	0.000000	0.000000	-0.000000	0.000000	1.000000
[shoulder_up_right]
# Tx<tab>Ty<tab>Tz<tab>Rx<tab>Ry<tab>Rz<tab>BoneScaleFactor<CR>
37	0.000000	0.000000	0.000000	2.175007	6.039072	35.053094	1.000000
38	0.000000	0.000000	0.000000	2.080442	5.776504	33.529043	1.000000
39	0.000000	0.000000	0.000000	1.978027	5.492141	31.878494	1.000000
40	0.000000	0.000000	0.000000	1.868884	5.189097	30.119515	1.000000
[bicep_up_right]
# Tx<tab>Ty<tab>Tz<tab>Rx<tab>Ry<tab>Rz<tab>BoneScaleFactor<CR>
37	0.000000	0.000000	0.000000	0.000000	-0.000000	0.000000	1.000000
38	0.000000	0.000000	0.000000	0.000000	-0.000000	0.000000	1.000000
39	0.000000	0.000000	0.000000	0.000000	-0.000000	0.000000	1.000000
40	0.000000	0.000000	0.000000	0.000000	-0.000000	0.000000	1.000000
[forearm_up_right]
# Tx<tab>Ty<tab>Tz<tab>Rx<tab>Ry<tab>Rz<tab>BoneScaleFactor<CR>
37	0.000000	0.000000	0.000000	-17.094722	16.627051	19.543704	1.000000
38	0.000000	0.000000	0.000000	-16.351476	15.904136	18.693978	1.000000
39	0.000000	0.000000	0.000000	-15.546537	15.121216	17.773720	1.000000
40	0.000000	0.000000	0.000000	-14.688711	14.286863	16.793009	1.000000
[hand_up_right]
# Tx<tab>Ty<tab>Tz<tab>Rx<tab>Ry<tab>Rz<tab>BoneScaleFactor<CR>
37	0.000000	0.000000	0.000000	-7.866976	33.965219	-6.820684	1.000000
38	0.000000	0.000000	0.000000	-7.524935	32.488474	-6.524133	1.000000
39	0.000000	0.000000	0.000000	-7.154500	30.889151	-6.202966	1.000000
40	0.000000	0.000000	0.000000	-6.759732	29.184756	-5.860701	1.000000
[shoulder_down_right]
# Tx<tab>Ty<tab>Tz<tab>Rx<tab>Ry<tab>Rz<tab>BoneScaleFactor<CR>
37	0.000000	0.000000	0.000000	0.000000	-0.000000	0.000000	1.000000
38	0.000000	0.000000	0.000000	0.000000	-0.000000	0.000000	1.000000
39	0.000000	0.000000	0.000000	0.000000	-0.000000	0.000000	1.000000
40	0.000000	0.000000	0.000000	0.000000	-0.000000	0.000000	1.000000
[bicep_down_right]
# Tx<tab>Ty<tab>Tz<tab>Rx<tab>Ry<tab>Rz<tab>BoneScaleFactor<CR>
37	0.000000	0.000000	0.000000	-18.917814	-9.060997	28.926469	1.000000
38	0.000000	0.000000	0.000000	-18.095302	-8.667041	27.668796	1.000000
39	0.000000	0.000000	0.000000	-17.204517	-8.240385	26.306733	1.000000
40	0.000000	0.000000	0.000000	-16.255213	-7.785701	24.855190	1.000000
[forearm_down_right]
# Tx<tab>Ty<tab>Tz<tab>Rx<tab>Ry<tab>Rz<tab>BoneScaleFactor<CR>
37	0.000000	0.000000	0.000000	-10.178234	-11.220719	13.166551	1.000000
38	0.000000	0.000000	0.000000	-9.735703	-10.732862	12.594093	1.000000
39	0.000000	0.000000	0.000000	-9.256440	-10.204510	11.974118	1.000000
40	0.000000	0.000000	0.000000	-8.745690	-9.641450	11.313413	1.000000
[hand_down_right]
# Tx<tab>Ty<tab>Tz<tab>Rx<tab>Ry<tab>Rz<tab>BoneScaleFactor<CR>
37	0.000000	0.000000	0.000000	0.000000	-0.000000	0.000000	1.000000
38	0.000000	0.000000	0.000000	0.000000	-0.000000	0.000000	1.000000
39	0.000000	0.000000	0.000000	0.000000	-0.000000	0.000000	1.000000
40	0.000000	0.000000	0.000000	0.000000	-0.000000	0.000000	1.000000
[hip_left]
# Tx<tab>Ty<tab>Tz<tab>Rx<tab>Ry<tab>Rz<tab>BoneScaleFactor<CR>
37	0.000000	0.000000	0.000000	0.000000	-0.000000	0.000000	1.000000
38	0.000000	0.000000	0.000000	0.000000	-0.000000	0.000000	1.000000
39	0.000000	0.000000	0.000000	0.000000	-0.000000	0.000000	1.000000
40	0.000000	0.000000	0.000000	0.000000	-0.000000	0.000000	1.000000
[thigh_left]
# Tx<tab>Ty<tab>Tz<tab>Rx<tab>Ry<tab>Rz<tab>BoneScaleFactor<CR>
37	0.000000	0.000000	0.000000	0.000000	-0.000000	0.000000	1.000000
38	0.000000	0.000000	0.000000	0.000000	-0.000000	0.000000	1.000000
39	0.000000	0.000000	0.000000	0.000000	-0.000000	0.000000	1.000000
40	0.000000	0.000000	0.000000	0.000000	-0.000000	0.000000	1.000000
[shin_left]
# Tx<tab>Ty<tab>Tz<tab>Rx<tab>Ry<tab>Rz<tab>BoneScaleFactor<CR>
37	0.000000	0.000000	0.000000	0.000000	-0.000000	0.000000	1.000000
38	0.000000	0.000000	0.000000	0.000000	-0.000000	0.000000	1.000000
39	0.000000	0.000000	0.000000	0.000000	-0.000000	0.000000	1.000000
40	0.000000	0.000000	0.000000	0.000000	-0.000000	0.000000	1.000000
[foot_left]
# Tx<tab>Ty<tab>Tz<tab>Rx<tab>Ry<tab>Rz<tab>BoneScaleFactor<CR>
37	0.000000	0.000000	0.000000	0.000000	-0.000000	0.000000	1.000000
38	0.000000	0.000000	0.000000	0.000000	-0.000000	0.000000	1.000000
39	0.000000	0.000000	0.000000	0.000000	-0.000000	0.000000	1.000000
40	0.000000	0.000000	0.000000	0.000000	-0.000000	0.000000	1.000000
[hip_right]
# Tx<tab>Ty<tab>Tz<tab>Rx<tab>Ry<tab>Rz<tab>BoneScaleFactor<CR>
37	0.000000	0.000000	0.000000	0.000000	-0.000000	0.000000	1.000000
38	0.000000	0.000000	0.000000	0.000000	-0.000000	0.000000	1.000000
39	0.000000	0.000000	0.000000	0.000000	-0.000000	0.000000	1.000000
40	0.000000	0.000000	0.000000	0.000000	-0.000000	0.000000	1.000000
[thigh_right]
# Tx<tab>Ty<tab>Tz<tab>Rx<tab>Ry<tab>Rz<tab>BoneScaleFactor<CR>
37	0.000000	0.000000	0.000000	0.000000	-0.000000	0.000000	1.000000
38	0.000000	0.000000	0.000000	0.000000	-0.000000	0.000000	1.000000
39	0.000000	0.000000	0.000000	0.000000	-0.000000	0.000000	1.000000
40	0.000000	0.000000	0.000000	0.000000	-0.000000	0.000000	1.000000
[shin_right]
# Tx<tab>Ty<tab>Tz<tab>Rx<tab>Ry<tab>Rz<tab>BoneScaleFactor<CR>
37	0.000000	0.000000	0.000000	0.000000	-0.000000	0.000000	1.000000
38	0.000000	0.000000	0.000000	0.000000	-0.000000	0.000000	1.000000
39	0.000000	0.000000	0.000000	0.000000	-0.000000	0.000000	1.000000
40	0.000000	0.000000	0.000000	0.000000	-0.000000	0.000000	1.000000
[foot_right]
# Tx<tab>Ty<tab>Tz<tab>Rx<tab>Ry<tab>Rz<tab>BoneScaleFactor<CR>
37	0.000000	0.000000	0.000000	0.000000	-0.000000	0.000000	1.000000
38	0.000000	0.000000	0.000000	0.000000	-0.000000	0.000000	1.000000
39	0.000000	0.000000	0.000000	0.000000	-0.000000	0.000000	1.000000
40	0.000000	0.000000	0.000000	0.000000	-0.000000	0.000000	1.000000
[EndOfFile]
